<svg xmlns="http://www.w3.org/2000/svg" xmlns:xlink="http://www.w3.org/1999/xlink" width="512" zoomAndPan="magnify" viewBox="0 0 384 383.999986" height="512" preserveAspectRatio="xMidYMid meet" version="1.0"><defs><clipPath id="4d2c77260b"><path d="M 14 24 L 361 24 L 361 370.125 L 14 370.125 Z M 14 24 " clip-rule="nonzero"/></clipPath></defs><g clip-path="url(#4d2c77260b)"><path fill="#000000" d="M 356.816406 27.933594 C 343.90625 15.039062 292.632812 40.179688 275.453125 57.375 L 231.027344 101.804688 L 37.988281 67.738281 C 36.515625 67.472656 35 67.945312 33.941406 69.003906 L 15.597656 87.363281 C 14.550781 88.40625 14.066406 89.894531 14.300781 91.351562 C 14.539062 92.808594 15.449219 94.0625 16.773438 94.722656 L 167.84375 170.257812 L 103.863281 252.121094 L 47.160156 242.109375 C 45.671875 241.875 44.171875 242.316406 43.109375 243.375 L 29.347656 257.140625 C 28.332031 258.15625 27.832031 259.613281 28.035156 261.042969 C 28.273438 262.5 29.125 263.75 30.40625 264.414062 L 77.101562 289.554688 L 65.179688 313.390625 C 64.292969 315.15625 64.648438 317.292969 66.046875 318.675781 C 66.945312 319.558594 68.105469 320 69.300781 320 C 69.992188 320 70.699219 319.851562 71.347656 319.527344 L 95.179688 307.605469 L 120.324219 354.300781 C 121.015625 355.566406 122.265625 356.449219 123.695312 356.683594 C 123.914062 356.714844 124.121094 356.714844 124.355469 356.714844 C 125.5625 356.714844 126.726562 356.257812 127.609375 355.390625 L 141.375 341.609375 C 142.433594 340.550781 142.90625 339.046875 142.65625 337.589844 L 132.644531 280.855469 L 214.507812 216.878906 L 290.042969 367.945312 C 290.703125 369.269531 291.972656 370.183594 293.414062 370.417969 C 293.664062 370.464844 293.898438 370.476562 294.179688 370.476562 C 295.386719 370.476562 296.519531 370.007812 297.402344 369.136719 L 315.773438 350.78125 C 316.804688 349.722656 317.304688 348.21875 317.039062 346.734375 L 282.976562 153.695312 L 327.40625 109.265625 C 344.597656 92.089844 369.726562 40.84375 356.816406 27.933594 Z M 356.816406 27.933594 " fill-opacity="1" fill-rule="nonzero"/></g></svg>